<svg width="452" height="452" viewBox="0 0 452 452" fill="none" xmlns="http://www.w3.org/2000/svg">
    <rect x="0.237976" y="0.234375" width="451.319" height="451.319" rx="32.237" fill="#6796AD" />
    <path
        d="M71.6066 101.486L91.7085 76.4948C102.574 63.999 109.094 63.999 124.306 63.999H357.922V107.463H119.96C112.897 107.463 107.464 113.982 107.464 119.958V201.996H349.773V245.459H107.464V327.496C107.464 333.473 112.897 340.536 120.503 340.536H358.466V383.999H124.849C109.094 383.999 103.118 383.999 92.2518 370.96L71.6066 346.512C65.0871 338.906 64.0005 335.646 64.0005 323.693V124.305C64.0005 112.352 65.0871 109.092 71.6066 101.486Z"
        fill="white" />
</svg>