<svg width="100%" height="100%" viewBox="0 0 70 71" fill="currentColor"
    xmlns="http://www.w3.org/2000/svg">
    <path d="M9.08917 53.6947C7.76886 54.4409 7.30353 56.1163 8.04981 57.4366C8.7961 58.7569 10.4714 59.2222 11.7917 58.4759L9.08917 53.6947ZM58.0921 58.4759C59.4124 59.2222 61.0877 58.7569 61.834 57.4366C62.5803 56.1162 62.1149 54.4409 60.7946 53.6947L58.0921 58.4759ZM42.8812 28.29C42.8812 32.6747 39.3266 36.2293 34.9419 36.2293V41.7215C42.3599 41.7215 48.3734 35.708 48.3734 28.29H42.8812ZM34.9419 36.2293C30.5571 36.2293 27.0026 32.6747 27.0026 28.29H21.5104C21.5104 35.708 27.5239 41.7215 34.9419 41.7215V36.2293ZM27.0026 28.29C27.0026 23.9052 30.5571 20.3507 34.9419 20.3507V14.8585C27.5239 14.8585 21.5104 20.872 21.5104 28.29H27.0026ZM34.9419 20.3507C39.3266 20.3507 42.8812 23.9052 42.8812 28.29H48.3734C48.3734 20.872 42.3599 14.8585 34.9419 14.8585V20.3507ZM34.9419 46.9146C25.5509 46.9146 16.7269 49.3776 9.08917 53.6947L11.7917 58.4759C18.6265 54.6126 26.5225 52.4068 34.9419 52.4068V46.9146ZM60.7946 53.6947C53.1569 49.3776 44.3329 46.9146 34.9419 46.9146V52.4068C43.3613 52.4068 51.2573 54.6126 58.0921 58.4759L60.7946 53.6947ZM64.2519 35.4136C64.2519 51.6011 51.1294 64.7236 34.9419 64.7236V70.2158C54.1626 70.2158 69.7441 54.6343 69.7441 35.4136H64.2519ZM34.9419 64.7236C18.7544 64.7236 5.63183 51.6011 5.63183 35.4136H0.13965C0.13965 54.6343 15.7211 70.2158 34.9419 70.2158V64.7236ZM5.63183 35.4136C5.63183 19.2261 18.7544 6.10351 34.9419 6.10351V0.61133C15.7211 0.61133 0.13965 16.1928 0.13965 35.4136H5.63183ZM34.9419 6.10351C51.1294 6.10351 64.2519 19.2261 64.2519 35.4136H69.7441C69.7441 16.1928 54.1626 0.61133 34.9419 0.61133V6.10351Z" />
</svg>
