<svg width="40" height="40" viewBox="0 0 40 40" fill="none" xmlns="http://www.w3.org/2000/svg">
<g clip-path="url(#clip0_2281_109)">
<path d="M35.6063 40H4.51348C2.00599 40 0 37.9016 0 35.2787V4.72131C0 2.09836 2.00599 0 4.51348 0H35.4809C37.9884 0 39.9944 2.09836 39.9944 4.72131V35.1475C40.1198 37.9016 38.1138 40 35.6063 40Z" fill="#8CC63F"/>
<path d="M32.2212 19.9344C32.2212 19.1476 31.5943 18.4918 30.8421 18.4918H21.3136V8.65576C21.3136 7.86887 20.6868 7.21313 19.9345 7.21313C19.1823 7.21313 18.5554 7.86887 18.5554 8.65576V18.623H9.15231C8.40007 18.623 7.77319 19.2787 7.77319 20.0656C7.77319 20.8525 8.40007 21.5082 9.15231 21.5082H18.6808V31.4754C18.6808 32.2623 19.3076 32.9181 20.0599 32.9181C20.8121 32.9181 21.439 32.2623 21.439 31.4754V21.5082H30.9675C31.7197 21.3771 32.2212 20.7213 32.2212 19.9344Z" fill="white"/>
</g>
<defs>
<clipPath id="clip0_2281_109">
<rect width="40" height="40" fill="white"/>
</clipPath>
</defs>
</svg>
