<svg width="25" height="25" viewBox="0 0 25 25" fill="currentColor">
    <path fill-rule="evenodd" clip-rule="evenodd" d="M5.03564 1.22864C4.48336 1.22864 4.03564 1.67635 4.03564 2.22864V5.94421H20.3492V2.22864C20.3492 1.67635 19.9015 1.22864 19.3492 1.22864H5.03564ZM19.3492 23.8881C19.9015 23.8881 20.3492 23.4403 20.3492 22.8881V19.1725H4.03565L4.03565 22.8881C4.03565 23.4403 4.48337 23.8881 5.03565 23.8881L19.3492 23.8881ZM0.226318 8.06165H4.03297C4.03698 10.0598 4.03564 12.0582 4.03431 14.0567V14.0568V14.0569V14.0569V14.057V14.0571C4.03364 15.0564 4.03297 16.0558 4.03297 17.0552H0.226318V8.06165ZM7.22945 8.06165H5.00541C5.00466 10.0603 5.00491 12.0587 5.00516 14.0572L5.00541 17.0552H7.22945V8.06165ZM8.19843 8.06165H9.06321C9.06385 11.0597 9.06385 14.0571 9.06321 17.0552H8.19843V8.06165ZM13.7675 8.06228H10.165V17.0558H13.7694C13.7686 15.7709 13.7688 14.4861 13.7691 13.2013V13.2013V13.2013C13.7694 11.4883 13.7697 9.77541 13.7675 8.06228ZM15.594 8.06165H18.2198C18.2213 9.77297 18.2211 11.4841 18.2209 13.1952V13.2008C18.2207 14.4855 18.2206 15.7703 18.2212 17.0552H15.594V8.06165ZM24.2263 8.06165H20.0399V17.0552H24.2263V8.06165Z" />
</svg>
