<svg width="36" height="44" viewBox="0 0 36 44" fill="none" xmlns="http://www.w3.org/2000/svg">
<path d="M33.4601 5.81076H25.7809C25.6083 5.81076 25.4358 5.63944 25.3495 5.55378L24.8318 3.75498C24.3141 1.95618 22.4159 0.5 20.5176 0.5H14.823C12.9247 0.5 11.0265 1.87052 10.5088 3.75498L9.99112 5.55378C9.90484 5.7251 9.73227 5.81076 9.5597 5.81076H2.05309C1.19026 5.81076 0.5 6.49602 0.5 7.35259C0.5 8.20916 1.19026 8.89442 2.05309 8.89442C2.22566 8.89442 2.39822 9.06574 2.39822 9.23705L3.5199 39.4741C3.60618 41.7012 5.50441 43.5 7.66148 43.5H27.7654C30.0087 43.5 31.8207 41.7012 31.907 39.4741L33.0287 9.23705C33.0287 9.06574 33.2012 8.89442 33.3738 8.89442C34.3229 8.89442 35.0132 8.20916 35.0132 7.35259C35.0132 6.49602 34.3229 5.81076 33.4601 5.81076ZM11.5442 36.9044C10.8539 36.9044 10.25 36.3904 10.25 35.7052L9.64599 14.5478C9.64599 13.8625 10.1637 13.2629 10.8539 13.2629C11.5442 13.2629 12.1482 13.7769 12.1482 14.4622L12.7522 35.6195C12.7522 36.3048 12.2345 36.9044 11.5442 36.9044ZM19.0508 35.7052C19.0508 36.3904 18.4468 36.99 17.7566 36.99C17.0663 36.99 16.4623 36.3904 16.4623 35.7052V14.5478C16.4623 13.8625 17.0663 13.2629 17.7566 13.2629C18.4468 13.2629 19.0508 13.8625 19.0508 14.5478V35.7052ZM21.8982 5.81076H13.615C13.4424 5.81076 13.3562 5.63944 13.3562 5.55378L13.615 4.61155C13.7876 4.09761 14.3915 3.66932 14.9092 3.66932H20.6039C21.1216 3.66932 21.7256 4.18327 21.8982 4.61155L22.157 5.55378C22.157 5.63944 22.0707 5.81076 21.8982 5.81076ZM25.2632 35.7052C25.2632 36.3904 24.6592 36.9044 23.9689 36.9044C23.2787 36.9044 22.761 36.3048 22.761 35.6195L23.365 14.4622C23.365 13.7769 23.9689 13.2629 24.6592 13.2629C25.3495 13.2629 25.8672 13.8625 25.8672 14.5478L25.2632 35.7052Z" fill="white"/>
</svg>
