<svg width="20" height="18" viewBox="0 0 20 18" fill="none" xmlns="http://www.w3.org/2000/svg">
<path fill-rule="evenodd" clip-rule="evenodd" d="M9.40162 0.703538C8.62935 0.705556 7.85706 0.707574 7.08492 0.702695C6.85113 1.18234 6.61205 1.65916 6.37304 2.13584C6.20323 2.47452 6.03345 2.81312 5.86563 3.15261C4.49309 3.15158 3.12158 3.15158 1.75007 3.15158H1.74912C1.48423 3.14746 1.22244 3.20208 0.97611 3.29587C0.574147 3.52365 0.246392 3.86481 0.0825147 4.30078C-0.00637948 4.66533 -0.00234835 5.03891 0.00167558 5.41183C0.00273705 5.5102 0.00379803 5.60852 0.00315263 5.70662C0.00274036 7.01104 0.00298775 8.31563 0.00323514 9.62025C0.00360624 11.5772 0.00397734 13.5342 0.00212213 15.4908C-0.0246754 16.1463 0.327815 16.8462 0.950343 17.1069C1.25716 17.291 1.62019 17.2944 1.96813 17.2976C2.00006 17.2979 2.03186 17.2982 2.06347 17.2986C4.39189 17.2964 6.72031 17.297 9.04873 17.2977C12.153 17.2985 15.2573 17.2994 18.3615 17.2935C19.2098 17.2873 19.9591 16.573 19.9931 15.7238C20.0008 13.2689 19.9995 10.8141 19.9981 8.35888C19.9975 7.19591 19.9969 6.03286 19.9972 4.86971C20.0539 3.96478 19.2407 3.1454 18.344 3.15158C17.8013 3.15238 17.2586 3.15209 16.7159 3.1518C15.8631 3.15135 15.0102 3.15089 14.1574 3.15467C13.9771 2.77496 13.7877 2.39991 13.5984 2.02499C13.3797 1.59188 13.1611 1.15894 12.9567 0.719186C11.7722 0.697343 10.5869 0.700441 9.40162 0.703538ZM4.62779 8.6121C5.04522 7.18255 6.07074 5.96944 7.37351 5.25931C8.19187 4.8625 9.08443 4.58422 10.0048 4.6172C11.4797 4.59968 12.9381 5.21602 13.9698 6.26628C15.4076 7.68552 15.9735 9.90662 15.3736 11.8412C15.1819 12.3648 14.9706 12.8863 14.648 13.346C13.6782 14.8157 11.9806 15.7722 10.2182 15.8237C7.88782 15.9453 5.5925 14.4313 4.77724 12.2483C4.3155 11.1001 4.27015 9.79428 4.62779 8.6121ZM11.9982 7.7578C11.0933 7.00747 9.77507 6.86112 8.7042 7.3208C8.6787 7.3356 8.6531 7.3504 8.62744 7.36523C8.2208 7.60029 7.80057 7.8432 7.52717 8.23295C6.50577 9.44914 6.63873 11.4631 7.82607 12.5206C8.61453 13.2915 9.82867 13.5687 10.882 13.2616C11.8673 12.9978 12.6878 12.1938 13.0001 11.2271C13.2649 10.487 13.1825 9.67383 12.9197 8.94617C12.9012 8.91544 12.8827 8.8846 12.8642 8.8537C12.6239 8.45243 12.3782 8.04203 11.9982 7.7578Z" fill="white"/>
</svg>
