<svg width="25" height="24" viewBox="0 0 25 24" fill="none" xmlns="http://www.w3.org/2000/svg">
<g clip-path="url(#clip0_781_1449)">
<path d="M21.8638 23.9435H3.20809C1.70359 23.9435 0.5 22.7399 0.5 21.2354V3.70809C0.5 2.20359 1.70359 1 3.20809 1H21.7886C23.2931 1 24.4967 2.20359 24.4967 3.70809V21.1602C24.5719 22.7399 23.3683 23.9435 21.8638 23.9435Z" fill="#FA0000"/>
<path d="M17.7268 7.31896C17.4259 7.01807 16.8993 7.01807 16.5984 7.31896L12.5363 11.3059L8.47416 7.24374C8.17326 6.94284 7.64669 6.94284 7.34579 7.24374C7.04489 7.54464 7.04489 8.07121 7.34579 8.37211L11.4079 12.4342L7.34579 16.4964C7.04489 16.7973 7.04489 17.3238 7.34579 17.6247C7.64669 17.9256 8.17326 17.9256 8.47416 17.6247L12.5363 13.5626L16.5984 17.6247C16.8993 17.9256 17.4259 17.9256 17.7268 17.6247C18.0277 17.3238 18.0277 16.7973 17.7268 16.4964L13.6647 12.4342L17.7268 8.37211C18.0277 8.14644 18.0277 7.61986 17.7268 7.31896Z" fill="white"/>
</g>
<defs>
<clipPath id="clip0_781_1449">
<rect width="24" height="24" fill="white" transform="translate(0.5)"/>
</clipPath>
</defs>
</svg>
