<svg width="20" height="20" viewBox="0 0 20 20" fill="none" xmlns="http://www.w3.org/2000/svg">
<path fill-rule="evenodd" clip-rule="evenodd" d="M17.8346 0.252567C16.7312 -0.31896 15.3734 0.112218 14.8019 1.21562L12.309 6.02849C12.2936 6.0567 12.2791 6.08502 12.2653 6.11346C11.0445 6.07345 9.83587 6.61337 9.02029 7.56788C8.84681 7.77089 8.66613 7.97727 8.48054 8.18284C8.38926 8.28398 8.41721 8.44447 8.53797 8.50757L15.9944 12.4041C16.1053 12.4621 16.2419 12.4092 16.2845 12.2915C16.3845 12.0151 16.4808 11.7448 16.572 11.4855C16.9721 10.3473 16.7764 9.14506 16.1449 8.21004C16.2774 8.06632 16.392 7.90426 16.4844 7.72666L18.7953 3.28981C19.3702 2.18594 18.9397 0.824997 17.8346 0.252567ZM7.206 9.48739C7.27078 9.42722 7.36641 9.41376 7.44478 9.4547L15.5628 13.697C15.6562 13.7458 15.6981 13.8571 15.6596 13.9553C15.4637 14.4556 15.2639 14.9437 15.0674 15.3915C14.3102 17.1172 13.4283 18.5354 12.9262 19.2874C12.5291 19.8822 11.7893 20.1496 11.0972 19.9158C10.62 19.7547 9.92654 19.4949 9.1025 19.1101C8.96421 19.0455 8.94341 18.8581 9.06 18.7596C9.19176 18.6484 9.31417 18.5391 9.42678 18.4335C10.0775 17.823 10.6388 17.1464 11.0924 16.3736C11.281 16.0523 11.172 15.6444 10.8489 15.4626C10.5259 15.2808 10.1111 15.3938 9.92255 15.7151C9.53504 16.3753 9.05583 16.9494 8.50048 17.4703C8.255 17.7006 7.95388 17.9516 7.60423 18.2018C7.53919 18.2483 7.45298 18.2519 7.38385 18.2118C7.14163 18.0711 6.89455 17.9213 6.64397 17.7619C6.15402 17.4503 5.70444 17.1503 5.29221 16.8631C5.14933 16.7635 5.18784 16.5417 5.35239 16.4847C5.56898 16.4096 5.78113 16.3216 5.98385 16.2157C6.23164 16.0861 6.54412 15.8858 6.9035 15.5776C7.18651 15.3348 7.21462 14.9153 6.96629 14.6404C6.71794 14.3656 6.28718 14.3395 6.00417 14.5823C5.71995 14.826 5.49331 14.967 5.34193 15.0461C4.8524 15.302 4.29564 15.4133 3.75457 15.5214L3.65334 15.5417C3.59246 15.5539 3.52921 15.5385 3.48123 15.499C2.66285 14.827 2.09544 14.2684 1.7124 13.8463C1.36477 13.4632 1.35129 12.9682 1.53018 12.5905C1.70143 12.2288 2.053 11.95 2.48614 11.883C3.22674 11.7686 4.41933 11.446 5.8619 10.5511C6.28912 10.2861 6.74703 9.91386 7.206 9.48739ZM3.62865 7.62143C4.16702 7.62143 4.60348 7.18498 4.60348 6.64658C4.60348 6.10821 4.16702 5.67175 3.62865 5.67175C3.09025 5.67175 2.6538 6.10821 2.6538 6.64658C2.6538 7.18498 3.09025 7.62143 3.62865 7.62143ZM1.94968 9.64304C1.94968 10.1814 1.51322 10.6179 0.974848 10.6179C0.436449 10.6179 0 10.1814 0 9.64304C2.58808e-06 9.10466 0.436449 8.66821 0.974848 8.66821C1.51322 8.66821 1.94968 9.10466 1.94968 9.64304Z" fill="#FA0000"/>
</svg>
