<svg width="14" height="14" viewBox="0 0 14 14" fill="currentColor" xmlns="http://www.w3.org/2000/svg">
<path d="M13.2058 1.70597C13.5927 1.32438 13.5948 0.700743 13.2106 0.316501C12.8301 -0.0640116 12.2138 -0.0661368 11.8307 0.311743L6.9071 5.16786L2.06051 0.321276C1.67812 -0.0611092 1.05815 -0.0611092 0.675768 0.321276C0.293383 0.703661 0.293383 1.32363 0.675768 1.70602L5.52236 6.5526L0.666235 11.4762C0.288356 11.8593 0.290481 12.4756 0.670993 12.8561C1.05524 13.2403 1.67887 13.2382 2.06046 12.8513L6.9071 7.93734L11.7537 12.7839C12.1361 13.1663 12.756 13.1663 13.1384 12.7839C13.5208 12.4015 13.5208 11.7816 13.1384 11.3992L8.29184 6.5526L13.2058 1.70597Z" />
</svg>
