<svg width="23" height="15" viewBox="0 0 23 15" fill="none" xmlns="http://www.w3.org/2000/svg">
    <path fill-rule="evenodd" clip-rule="evenodd"
        d="M11.4269 0.128906C13.9137 0.128906 16.3175 1.02267 18.2004 2.64712L22.2004 6.08178C22.615 6.43643 22.8538 6.95483 22.8538 7.50052C22.8538 8.04621 22.615 8.56462 22.2004 8.91926L18.2004 12.3539C16.3174 13.9784 13.9137 14.8721 11.4269 14.8721C8.94002 14.8721 6.53627 13.9784 4.65339 12.3539L0.653394 8.91926C0.238752 8.56461 0 8.04621 0 7.50052C0 6.95483 0.238752 6.43642 0.653394 6.08178L4.65339 2.64712C6.53637 1.02267 8.94002 0.128906 11.4269 0.128906ZM8.22135 10.7062C9.07154 11.5564 10.2245 12.0341 11.4269 12.0341C12.6283 12.0313 13.7797 11.5527 14.6294 10.7032C15.4789 9.85357 15.9574 8.70212 15.9603 7.5007C15.9603 6.29837 15.4826 5.14536 14.6324 4.29517C13.7822 3.44497 12.6292 2.96731 11.4269 2.96731C10.2245 2.96731 9.07154 3.44497 8.22135 4.29517C7.37115 5.14536 6.89349 6.29837 6.89349 7.5007C6.89349 8.70303 7.37115 9.85604 8.22135 10.7062ZM11.427 10.4332C13.0471 10.4332 14.3604 9.11982 14.3604 7.4998C14.3604 5.87978 13.0471 4.56641 11.427 4.56641C9.80702 4.56641 8.49365 5.87978 8.49365 7.4998C8.49365 9.11982 9.80702 10.4332 11.427 10.4332Z"
        fill="white" />
</svg>