<svg width="23" height="21" viewBox="0 0 23 21" fill="none" xmlns="http://www.w3.org/2000/svg">
    <path fill-rule="evenodd" clip-rule="evenodd"
        d="M14.2434 3.51877C13.3337 3.26198 12.3865 3.12891 11.4269 3.12891C8.94002 3.12891 6.53637 4.02267 4.65339 5.64712L0.653394 9.08178C0.238752 9.43642 0 9.95483 0 10.5005C0 11.0462 0.238752 11.5646 0.653394 11.9193L3.14696 14.0604L6.89349 10.5012C6.89349 10.501 6.89349 10.5009 6.89349 10.5007C6.89349 9.29837 7.37115 8.14536 8.22135 7.29517C9.07154 6.44497 10.2245 5.96731 11.4269 5.96731C11.5047 5.96731 11.5823 5.96931 11.6597 5.97328L14.2434 3.51877ZM19.5209 6.78102L15.9485 10.1747C15.9563 10.2829 15.9603 10.3916 15.9603 10.5007C15.9574 11.7021 15.4789 12.8536 14.6294 13.7032C13.7797 14.5527 12.6283 15.0313 11.4269 15.0341C11.2396 15.0341 11.0535 15.0225 10.8696 14.9997L8.34071 17.4022C9.33221 17.7113 10.3721 17.8721 11.4269 17.8721C13.9137 17.8721 16.3174 16.9784 18.2004 15.3539L22.2004 11.9193C22.615 11.5646 22.8538 11.0462 22.8538 10.5005C22.8538 9.95483 22.615 9.43643 22.2004 9.08178L19.5209 6.78102Z"
        fill="white" />
    <line x1="20.9638" y1="1.41375" x2="2.41375" y2="19.0363" stroke="white" stroke-width="2" stroke-linecap="round" />
</svg>