<svg width="17" height="16" viewBox="0 0 17 16" fill="none" xmlns="http://www.w3.org/2000/svg">
<g clip-path="url(#clip0_149_32)">
<path fill-rule="evenodd" clip-rule="evenodd" d="M0.5 13.1589C0.5 14.7539 1.74611 15.9502 3.39097 15.9502H13.609C15.2539 15.9502 16.5 14.6542 16.5 13.0592V7.87539C16.5 7.57632 16.2508 7.3271 15.9517 7.3271C15.6526 7.3271 15.4034 7.57632 15.4034 7.87539V13.109C15.4034 14.1059 14.6059 14.9034 13.609 14.9034H3.39097C2.39408 14.9034 1.59657 14.1059 1.59657 13.109V2.89097C1.59657 1.94393 2.29439 1.19626 3.39097 1.09657H8.57477C8.87383 1.09657 9.12305 0.847352 9.12305 0.548287C9.12305 0.249221 8.87383 0 8.57477 0H3.39097C1.74611 0 0.5 1.24611 0.5 2.89097V13.1589ZM4.83644 9.17134C4.6869 9.32087 4.58722 9.52025 4.53737 9.76947L4.28815 12.2118L6.68067 11.9128C6.92989 11.8629 7.12927 11.7632 7.27881 11.6137L16.1511 2.74143C16.5498 2.34268 16.5498 1.6947 16.1511 1.29595L15.1542 0.299065C15.0047 0.0996885 14.7056 0 14.4564 0C14.1573 0 13.9081 0.0996885 13.7087 0.299065L4.83644 9.17134Z" fill="#42687B"/>
</g>
<defs>
<clipPath id="clip0_149_32">
<rect width="16" height="16" fill="white" transform="translate(0.5)"/>
</clipPath>
</defs>
</svg>
