<svg width="30" height="35" viewBox="0 0 30 35" fill="currentColor">
    <path d="M0.776235 0.951624C0.477261 1.46381 0.520142 2.06148 0.818817 2.57391L0.8614 2.6165L11.1923 17.0883V33.4385C11.1923 33.8656 11.4484 34.2497 11.79 34.4203C11.918 34.5058 12.0889 34.5058 12.2596 34.5058C12.5157 34.5058 12.7292 34.4203 12.9427 34.2497L18.1935 29.8527C18.4495 29.6391 18.5776 29.3405 18.5776 29.0415V17.0883L28.9085 2.61647L28.9511 2.57389C29.2501 2.0617 29.2927 1.46403 28.9937 0.951601C28.6947 0.439415 28.1825 0.140418 27.5849 0.140418H2.14257C1.58751 0.0978359 1.03248 0.439392 0.776338 0.951601L0.776235 0.951624Z" />
</svg>
