<svg width="110" height="32" viewBox="0 0 110 32" fill="currentColor" xmlns="http://www.w3.org/2000/svg">
<path d="M0.899999 9.0001L2 7.7001C2.6 7.0001 2.9 7.0001 3.7 7.0001H16.2V9.3001H3.5C3.1 9.3001 2.8 9.7001 2.8 10.0001V14.4001H15.7V16.7001H2.8V21.1001C2.8 21.4001 3.1 21.8001 3.5 21.8001H16.2V24.1001H3.8C3 24.1001 2.6 24.1001 2.1 23.4001L1 22.1001C0.7 21.7001 0.6 21.5001 0.6 20.9001V10.2001C0.5 9.6001 0.599999 9.4001 0.899999 9.0001ZM94.2 9.0001L95.3 7.7001C95.9 7.0001 96.2 7.0001 97 7.0001H109.5V9.3001H96.8C96.4 9.3001 96.1 9.7001 96.1 10.0001V21.1001C96.1 21.4001 96.4 21.8001 96.8 21.8001H109.5V24.1001H97C96.2 24.1001 95.8 24.1001 95.3 23.4001L94.2 22.1001C93.9 21.7001 93.8 21.5001 93.8 20.9001V10.2001C93.8 9.6001 93.9 9.4001 94.2 9.0001ZM30.1 19.9001L23.6 9.2001C23.5 9.0001 23.2 9.1001 23.2 9.3001V24.1001H20.9V9.0001C20.9 8.3001 20.9 7.9001 21.5 7.6001L23.5 6.7001C24.5 6.3001 24.7 6.3001 25.3 7.3001L31.5 17.6001C31.7 17.9001 31.7 18.1001 32 18.1001C32.2 18.1001 32.3 18.0001 32.5 17.6001L38.7 7.3001C39.3 6.3001 39.5 6.3001 40.5 6.7001L42.5 7.6001C43.1 8.0001 43 8.3001 43 9.0001V24.1001H40.7V9.3001C40.7 9.1001 40.4 9.0001 40.3 9.2001L33.8 19.9001H30.1ZM86.7 14.9001H91.2L90.3 17.2001H87.6L90.5 24.1001H87.7L84.9 17.2001H76.9L77.8 14.9001H83.9L81.8 9.7001C81.7 9.4001 81.5 9.3001 81.3 9.3001H78.5C78.3 9.3001 78.1 9.3001 78 9.7001L72.1 24.1001H69.3L76.1 7.8001C76.3 7.4001 76.6 7.0001 77.1 7.0001H82.6C83.1 7.0001 83.4 7.3001 83.6 7.8001L86.7 14.9001ZM63.4 7.0001L65.1 8.0001C65.7 8.3001 65.7 8.6001 65.7 9.4001V24.2001H63.4V9.6001C63.4 9.4001 63.2 9.2001 63 9.4001L53.3 23.7001C52.8 24.4001 52.4 24.6001 51.5 24.1001L49.6 23.1001C49 22.7001 49 22.4001 49 21.7001V7.0001H51.3V21.5001C51.3 21.7001 51.6 21.8001 51.7 21.6001L61.8 7.3001C62.2 6.7001 62.6 6.7001 63.4 7.0001Z" />
<path d="M85.5 29.6001L84.6 31.9001H71.2L72.1 29.6001H85.5ZM96.2 2.4001H82.8L83.7 0.100098H97.1L96.2 2.4001Z" />
</svg>
