<svg width="23" height="24" viewBox="0 0 23 24" fill="none" xmlns="http://www.w3.org/2000/svg">
    <path
        d="M22.2593 12.0995C22.2593 18.0143 17.4644 22.8092 11.5496 22.8092C5.63481 22.8092 0.839907 18.0143 0.839907 12.0995C0.839907 6.18469 5.63481 1.38979 11.5496 1.38979C17.4644 1.38979 22.2593 6.18469 22.2593 12.0995Z"
        fill="white" stroke="#919191" stroke-width="0.931279" />
    <path
        d="M10.2923 17.1983C9.80334 17.6872 8.96519 17.6872 8.40643 17.1983L4.91413 13.7758C4.77444 13.6361 4.70459 13.4266 4.70459 13.2171C4.70459 13.0075 4.77444 12.798 4.91413 12.6583L5.75228 11.8201C5.89197 11.6804 6.10151 11.6106 6.31105 11.6106C6.52058 11.6106 6.73012 11.6804 6.86981 11.8201L8.89535 13.8457C9.17473 14.1251 9.59381 14.1251 9.80334 13.8457L16.2292 7.41984C16.4387 7.2103 16.6482 7.14046 16.8578 7.14046C17.0673 7.14046 17.2769 7.2103 17.4166 7.35L18.115 8.04845C18.2547 8.18815 18.3246 8.39768 18.3246 8.60722C18.3246 8.81676 18.2547 9.0263 18.115 9.16599L10.2923 17.1983Z"
        fill="#909090" />
</svg>