<svg width="100%" height="100%" viewBox="0 0 31 30" fill="currentColor">
    <path d="M14.8511 30C11.4761 30 8.22607 28.625 5.85107 26.25C3.47607 23.875 2.10107 20.625 2.10107 17.25C2.10107 13.875 3.47607 10.625 5.85107 8.25C7.85107 6.25 10.6011 4.875 13.6011 4.625C13.8511 4.625 13.9761 4.5 13.9761 4.25V0.5C13.9761 0.125 14.2261 0 14.3511 0C14.4761 0 14.6011 0 14.6011 0.125L22.1011 5.875C22.2261 6 22.2261 6.125 22.2261 6.25C22.2261 6.375 22.2261 6.5 22.1011 6.5L14.6011 12.25C14.6011 12.375 14.4761 12.375 14.3511 12.375C14.1011 12.375 13.8511 12.25 13.8511 11.875V7.875C13.8511 7.75 13.8511 7.625 13.7261 7.625C13.7261 7.5 13.6011 7.5 13.6011 7.5C11.3511 7.75 9.35107 8.75 7.85107 10.25C5.97607 12.125 4.97607 14.625 4.97607 17.25C4.97607 19.875 5.97607 22.375 7.85107 24.25C9.72607 26.125 12.2261 27.125 14.8511 27.125C17.4761 27.125 19.9761 26.125 21.8511 24.25C23.6011 22.5 24.6011 20.25 24.7261 17.875C24.7261 17.125 25.3511 16.5 26.1011 16.5C26.6011 16.5 26.8511 16.75 27.1011 17C27.3511 17.25 27.4761 17.625 27.4761 18C27.2261 21.125 25.9761 24 23.7261 26.125C21.4761 28.625 18.2261 30 14.8511 30Z" />
</svg>
