<svg width="16" height="16" viewBox="0 0 17 17" fill="currentColor">
    <path fill-rule="evenodd" clip-rule="evenodd" d="M10.0895 9.91725C11.9137 8.23459 12.1123 5.43295 10.5044 3.50344C8.84424 1.5113 5.92243 1.24568 3.93029 2.9058C1.93815 4.56592 1.67253 7.48772 3.33265 9.47986C4.98572 11.4635 7.88978 11.7353 9.88129 10.0985C9.90916 10.0682 9.93974 10.0389 9.97313 10.0111C10.0091 9.9752 10.0481 9.94393 10.0895 9.91725ZM10.2657 11.711C7.65882 13.3244 4.20868 12.8397 2.20377 10.4095C0.0124181 7.75334 0.344441 3.83546 3.00063 1.64411C5.65681 -0.547244 9.57469 -0.21522 11.766 2.44097C13.7133 4.87502 13.5973 8.36855 11.5715 10.6221L15.0863 14.7923C15.4183 15.1243 15.3519 15.7219 14.9535 15.9875C14.6215 16.3196 14.0238 16.2532 13.7582 15.8547L10.2657 11.711Z" />
</svg>
